<svg width="95" height="95" viewBox="0 0 95 95" fill="none" xmlns="http://www.w3.org/2000/svg">
<path d="M82.7292 27.7083C83.9826 27.7083 84.9062 27.3125 85.5 26.5208C86.0937 25.7292 86.1267 24.8056 85.5989 23.75C83.092 18.6701 78.5228 14.1009 71.8912 10.0423C65.2624 5.98632 57.1319 3.95833 47.5 3.95833C41.1007 3.95833 35.0484 5.01389 29.3431 7.125C23.6352 9.23611 18.4722 12.1719 13.8542 15.9323V10.8854C13.8542 10.0278 13.5744 9.31792 13.015 8.75583C12.4529 8.19639 11.743 7.91667 10.8854 7.91667C10.0278 7.91667 9.3179 8.19639 8.75582 8.75583C8.19638 9.31792 7.91666 10.0278 7.91666 10.8854V23.75C7.91666 24.8715 8.29665 25.8123 9.05666 26.5723C9.81402 27.3297 10.7535 27.7083 11.875 27.7083H24.7396C25.5972 27.7083 26.3071 27.4273 26.8692 26.8652C27.4286 26.3058 27.7083 25.5972 27.7083 24.7396C27.7083 23.8819 27.4286 23.1734 26.8692 22.614C26.3071 22.0519 25.5972 21.7708 24.7396 21.7708H16.2292C20.4514 18.0764 25.2172 15.1736 30.5267 13.0625C35.8387 10.9514 41.4965 9.89583 47.5 9.89583C56.2743 9.89583 63.3993 11.6269 68.875 15.0892C74.3507 18.554 78.0781 22.1667 80.0573 25.9271C80.3212 26.4549 80.651 26.8837 81.0469 27.2135C81.4427 27.5434 82.0035 27.7083 82.7292 27.7083ZM50.6667 91.0417C51.8542 91.0417 53.0575 90.8266 54.2767 90.3965C55.4985 89.969 56.4722 89.3924 57.1979 88.6667L72.5364 72.5365C73.2621 71.8108 73.6408 70.8872 73.6725 69.7656C73.7068 68.6441 73.4271 67.6545 72.8333 66.7969C72.3715 66.1371 71.7448 65.6582 70.9531 65.36C70.1614 65.0644 69.2708 65.0486 68.2812 65.3125L55.4167 68.2812V25.7292C55.4167 24.0799 54.8387 22.6786 53.6829 21.5254C52.5297 20.3696 51.1285 19.7917 49.4792 19.7917C47.8299 19.7917 46.4286 20.3696 45.2754 21.5254C44.1196 22.6786 43.5417 24.0799 43.5417 25.7292V49.4792H39.9792C39.4514 49.4792 38.8576 49.5451 38.1979 49.6771C37.5382 49.809 36.9444 50.0069 36.4167 50.2708L20.1875 58.3854C18.6701 59.1111 17.5156 60.2498 16.7239 61.8015C15.9323 63.3505 15.6684 64.9497 15.9323 66.599L18.4062 84.2135C18.7361 86.1927 19.6267 87.8249 21.0781 89.11C22.5295 90.3978 24.2448 91.0417 26.2239 91.0417H50.6667Z" fill="#2E5E60"/>
</svg>
