<svg width="95" height="95" viewBox="0 0 95 95" fill="none" xmlns="http://www.w3.org/2000/svg">
<path d="M12.2708 27.7083C11.0174 27.7083 10.0937 27.3125 9.5 26.5208C8.90625 25.7292 8.87326 24.8055 9.40104 23.75C11.908 18.6701 16.4772 14.1009 23.1087 10.0423C29.7376 5.98631 37.868 3.95833 47.5 3.95833C53.8993 3.95833 59.9516 5.01388 65.6569 7.12499C71.3648 9.23611 76.5278 12.1719 81.1458 15.9323V10.8854C81.1458 10.0278 81.4256 9.31791 81.985 8.75583C82.5471 8.19638 83.2569 7.91666 84.1146 7.91666C84.9722 7.91666 85.6821 8.19638 86.2442 8.75583C86.8036 9.31791 87.0833 10.0278 87.0833 10.8854V23.75C87.0833 24.8715 86.7033 25.8123 85.9433 26.5723C85.186 27.3296 84.2465 27.7083 83.125 27.7083H70.2604C69.4028 27.7083 68.6929 27.4273 68.1308 26.8652C67.5714 26.3058 67.2917 25.5972 67.2917 24.7396C67.2917 23.8819 67.5714 23.1734 68.1308 22.614C68.6929 22.0519 69.4028 21.7708 70.2604 21.7708H78.7708C74.5486 18.0764 69.7828 15.1736 64.4733 13.0625C59.1612 10.9514 53.5035 9.89583 47.5 9.89583C38.7257 9.89583 31.6007 11.6269 26.125 15.0892C20.6493 18.554 16.9219 22.1667 14.9427 25.9271C14.6788 26.4549 14.349 26.8837 13.9531 27.2135C13.5573 27.5434 12.9965 27.7083 12.2708 27.7083ZM44.3333 91.0417C43.1458 91.0417 41.9425 90.8266 40.7233 90.3964C39.5015 89.9689 38.5278 89.3923 37.8021 88.6667L22.4635 72.5365C21.7378 71.8108 21.3592 70.8871 21.3275 69.7656C21.2932 68.6441 21.5729 67.6545 22.1667 66.7969C22.6285 66.1371 23.2552 65.6582 24.0469 65.36C24.8385 65.0644 25.7292 65.0486 26.7187 65.3125L39.5833 68.2812V25.7292C39.5833 24.0799 40.1612 22.6786 41.3171 21.5254C42.4703 20.3696 43.8715 19.7917 45.5208 19.7917C47.1701 19.7917 48.5714 20.3696 49.7246 21.5254C50.8804 22.6786 51.4583 24.0799 51.4583 25.7292V49.4792H55.0208C55.5486 49.4792 56.1424 49.5451 56.8021 49.6771C57.4618 49.809 58.0555 50.0069 58.5833 50.2708L74.8125 58.3854C76.3299 59.1111 77.4844 60.2498 78.276 61.8014C79.0677 63.3505 79.3316 64.9496 79.0677 66.5989L76.5938 84.2135C76.2639 86.1927 75.3733 87.8248 73.9219 89.11C72.4705 90.3978 70.7552 91.0417 68.776 91.0417H44.3333Z" fill="#2E5E60"/>
</svg>
